<svg xmlns="http://www.w3.org/2000/svg" xmlns:xlink="http://www.w3.org/1999/xlink" width="128" zoomAndPan="magnify" viewBox="0 0 96 95.999999" height="128" preserveAspectRatio="xMidYMid meet" version="1.0"><path fill="#f7aaa1" d="M 48 0 C 21.535156 0 0 21.535156 0 48 C 0 74.464844 21.535156 96 48 96 C 74.464844 96 96 74.464844 96 48 C 96 21.535156 74.464844 0 48 0 Z M 72.449219 72.449219 C 71.839844 73.089844 71.007812 73.40625 70.207031 73.40625 C 69.375 73.40625 68.542969 73.085938 67.9375 72.449219 L 54.878906 59.390625 C 51.070312 62.207031 46.558594 63.648438 42.015625 63.648438 C 36.480469 63.648438 30.945312 61.535156 26.75 57.3125 C 18.304688 48.894531 18.304688 35.167969 26.75 26.753906 C 35.167969 18.304688 48.863281 18.304688 57.3125 26.753906 C 64.992188 34.398438 65.664062 46.398438 59.390625 54.878906 L 72.449219 67.9375 C 73.695312 69.183594 73.695312 71.199219 72.449219 72.449219 Z M 72.449219 72.449219 " fill-opacity="1" fill-rule="nonzero"/><path fill="#f7aaa1" d="M 42.015625 26.816406 C 38.144531 26.816406 34.238281 28.289062 31.265625 31.265625 C 25.34375 37.183594 25.34375 46.847656 31.265625 52.800781 C 37.183594 58.71875 46.847656 58.71875 52.800781 52.800781 C 58.71875 46.847656 58.71875 37.183594 52.800781 31.265625 C 49.824219 28.289062 45.921875 26.816406 42.015625 26.816406 Z M 42.015625 26.816406 " fill-opacity="1" fill-rule="nonzero"/></svg>