<svg xmlns="http://www.w3.org/2000/svg" xmlns:xlink="http://www.w3.org/1999/xlink" width="50" zoomAndPan="magnify" viewBox="0 0 37.5 30.000001" height="40" preserveAspectRatio="xMidYMid meet" version="1.0"><defs><clipPath id="0e8b2e252c"><path d="M 1 0 L 36 0 L 36 29 L 1 29 Z M 1 0 " clip-rule="nonzero"/></clipPath><clipPath id="ca751182d5"><path d="M 8.433594 -5.480469 L 40.609375 7.882812 L 30.308594 32.683594 L -1.867188 19.320312 Z M 8.433594 -5.480469 " clip-rule="nonzero"/></clipPath><clipPath id="58b3068107"><path d="M 8.433594 -5.480469 L 40.609375 7.882812 L 30.308594 32.683594 L -1.867188 19.320312 Z M 8.433594 -5.480469 " clip-rule="nonzero"/></clipPath></defs><g clip-path="url(#0e8b2e252c)"><g clip-path="url(#ca751182d5)"><g clip-path="url(#58b3068107)"><path fill="#353352" d="M 8.824219 14.214844 C 9.109375 14.527344 9.414062 14.859375 9.753906 15.199219 C 9.269531 14.4375 8.824219 13.636719 8.328125 12.925781 C 7.433594 11.632812 6.589844 10.300781 5.730469 8.988281 C 5.035156 9.640625 4.269531 10.152344 3.398438 10.503906 C 3.949219 10.988281 4.402344 11.566406 5.0625 11.964844 C 5.941406 12.496094 6.777344 13.039062 7.589844 13.671875 C 7.917969 13.925781 8.253906 14.175781 8.589844 14.421875 C 8.207031 13.992188 7.859375 13.605469 7.53125 13.28125 C 7.371094 13.113281 7.203125 12.976562 7.054688 12.832031 C 6.898438 12.695312 6.742188 12.585938 6.601562 12.46875 C 6.308594 12.234375 6.058594 12.03125 5.839844 11.855469 C 5.617188 11.683594 5.441406 11.523438 5.296875 11.386719 C 5.152344 11.25 5.039062 11.140625 4.953125 11.054688 C 4.777344 10.878906 4.710938 10.796875 4.726562 10.777344 C 4.738281 10.761719 4.832031 10.816406 5.035156 10.960938 C 5.132812 11.03125 5.257812 11.125 5.414062 11.25 C 5.492188 11.308594 5.574219 11.378906 5.667969 11.449219 C 5.761719 11.519531 5.867188 11.597656 5.980469 11.675781 C 6.203125 11.84375 6.460938 12.03125 6.757812 12.253906 C 6.90625 12.367188 7.074219 12.476562 7.238281 12.617188 C 7.394531 12.757812 7.574219 12.902344 7.738281 13.070312 C 8.082031 13.398438 8.441406 13.785156 8.824219 14.214844 Z M 9.109375 17.042969 C 9.28125 17.136719 9.867188 17.53125 10.25 17.617188 C 9.769531 17.28125 9.339844 16.894531 8.890625 16.5 C 8.125 15.824219 7.300781 15.339844 6.398438 14.867188 C 5.546875 14.421875 4.566406 13.988281 3.832031 13.359375 C 3.28125 12.878906 2.804688 12.320312 2.238281 11.867188 C 2.191406 11.902344 2.140625 11.9375 2.089844 11.972656 C 3.148438 13.378906 4.667969 14.332031 6.148438 15.253906 C 7.125 15.859375 8.085938 16.511719 9.109375 17.042969 Z M 11.378906 16.351562 C 11.253906 16.039062 11.121094 15.726562 11.023438 15.460938 C 10.484375 14.003906 9.941406 12.550781 9.394531 11.097656 C 8.742188 9.351562 8.105469 7.597656 7.433594 5.859375 C 6.609375 6.121094 5.804688 6.425781 5.03125 6.796875 C 6.265625 8.578125 7.382812 10.433594 8.613281 12.210938 C 9.507812 13.5 10.28125 15.15625 11.378906 16.351562 Z M 11.003906 17.347656 C 11.09375 17.328125 11.1875 17.316406 11.285156 17.3125 C 10.738281 16.941406 10.265625 16.488281 9.730469 16.089844 C 8.878906 15.460938 8.035156 14.824219 7.195312 14.175781 C 6.378906 13.546875 5.535156 13.019531 4.667969 12.46875 C 4.019531 12.0625 3.566406 11.5 3.019531 11.023438 C 2.925781 11.175781 2.824219 11.3125 2.710938 11.4375 C 3.234375 11.890625 3.667969 12.441406 4.230469 12.851562 C 5.105469 13.488281 6.066406 13.957031 7.015625 14.46875 C 7.722656 14.847656 8.417969 15.226562 9.023438 15.757812 C 9.660156 16.324219 10.265625 16.917969 11.003906 17.347656 Z M 12.046875 19.535156 C 12.046875 19.535156 12.144531 19.210938 12.152344 19.109375 C 12.164062 19.046875 12.164062 18.984375 12.167969 18.917969 C 12.09375 18.824219 12.097656 18.707031 12.148438 18.609375 C 12.109375 18.304688 11.984375 18.015625 11.734375 17.832031 C 11.65625 17.859375 11.578125 17.890625 11.5 17.925781 C 11.460938 17.960938 11.410156 17.980469 11.347656 17.996094 C 11.308594 18.015625 11.269531 18.035156 11.226562 18.054688 C 11.207031 18.066406 11.183594 18.070312 11.164062 18.074219 C 11.035156 18.132812 10.910156 18.191406 10.785156 18.25 C 10.691406 18.644531 11.167969 19.300781 11.578125 19.433594 C 11.707031 19.472656 11.914062 19.566406 12.046875 19.535156 Z M 24.976562 11.203125 C 24.796875 9.195312 24.152344 7.097656 23.195312 5.328125 C 22.417969 3.882812 21.464844 2.449219 21.253906 0.800781 C 18.777344 1.28125 16.398438 2 14 2.792969 C 11.929688 3.476562 9.738281 4 7.753906 4.914062 C 8.585938 7.015625 9.347656 9.144531 10.140625 11.257812 C 10.675781 12.679688 11.207031 14.101562 11.730469 15.527344 C 11.9375 16.082031 12.226562 16.671875 12.375 17.261719 C 14.46875 16.546875 16.308594 15.066406 18.304688 14.125 C 20.503906 13.09375 22.851562 12.398438 24.976562 11.203125 Z M 22.394531 26.753906 C 22.449219 26.574219 22.507812 26.394531 22.5625 26.21875 C 21.898438 25.898438 21.351562 25.433594 20.773438 24.964844 C 20.007812 24.347656 19.160156 23.851562 18.332031 23.316406 C 17.992188 23.097656 17.65625 22.871094 17.316406 22.640625 C 17.582031 22.859375 17.84375 23.074219 18.109375 23.292969 C 19.503906 24.460938 20.832031 25.796875 22.394531 26.753906 Z M 27.800781 16.171875 C 29.578125 14.796875 31.484375 13.515625 33.417969 12.347656 C 30.757812 12.011719 28.0625 12.085938 25.394531 11.773438 C 25.359375 11.769531 25.328125 11.761719 25.300781 11.75 C 23.25 12.890625 21.011719 13.566406 18.890625 14.558594 C 16.949219 15.472656 15.140625 16.867188 13.140625 17.664062 C 14.792969 18.054688 16.488281 18.070312 18.179688 18.234375 C 19.761719 18.390625 21.296875 18.769531 22.851562 19.0625 C 23.140625 19.089844 23.308594 19.097656 23.65625 18.894531 C 24.046875 18.664062 24.484375 18.539062 24.890625 18.355469 C 26.003906 17.851562 26.847656 16.910156 27.800781 16.171875 Z M 34.78125 13.835938 C 34.773438 13.746094 34.773438 13.660156 34.78125 13.574219 C 34.335938 13.417969 33.871094 13.308594 33.414062 13.183594 C 33.382812 13.175781 33.355469 13.160156 33.332031 13.148438 C 31.332031 14.363281 29.34375 15.695312 27.574219 17.1875 C 26.707031 17.921875 25.910156 18.644531 24.84375 19.066406 C 24.351562 19.261719 23.917969 19.601562 23.445312 19.800781 C 23.160156 19.917969 22.761719 19.691406 22.460938 19.675781 C 22.378906 19.671875 22.320312 19.648438 22.277344 19.605469 C 20.632812 19.289062 19.011719 18.929688 17.332031 18.8125 C 16.984375 18.789062 16.640625 18.761719 16.292969 18.738281 C 16.488281 18.769531 16.679688 18.796875 16.867188 18.828125 C 17.574219 18.9375 18.21875 19.070312 18.785156 19.242188 C 19.890625 19.621094 20.769531 19.75 21.457031 19.882812 C 22.140625 20.007812 22.609375 20.121094 22.902344 20.214844 C 23.191406 20.316406 23.3125 20.367188 23.308594 20.390625 C 23.285156 20.441406 22.78125 20.289062 21.417969 20.105469 C 21.074219 20.054688 20.679688 20 20.222656 19.917969 C 19.996094 19.875 19.753906 19.820312 19.5 19.753906 C 19.246094 19.683594 18.980469 19.609375 18.699219 19.527344 C 18.148438 19.367188 17.523438 19.242188 16.816406 19.136719 C 16.683594 19.117188 16.546875 19.097656 16.40625 19.078125 C 17.054688 19.273438 17.707031 19.464844 18.355469 19.648438 C 20.066406 20.125 21.773438 20.699219 23.539062 20.957031 C 24.597656 20.515625 25.46875 19.695312 26.449219 19.105469 C 27.40625 18.53125 28.375 17.980469 29.347656 17.4375 C 31.25 16.371094 32.929688 14.976562 34.78125 13.835938 Z M 34.257812 16 C 33.9375 15.863281 33.617188 15.734375 33.28125 15.640625 C 33.265625 15.636719 33.253906 15.632812 33.242188 15.625 C 32.046875 16.460938 30.867188 17.316406 29.59375 18.027344 C 28.441406 18.675781 27.234375 19.289062 26.148438 20.042969 C 25.398438 20.566406 24.699219 21.152344 23.859375 21.515625 C 23.796875 21.585938 23.707031 21.632812 23.585938 21.617188 C 21.722656 21.359375 19.914062 20.75 18.109375 20.242188 C 18.085938 20.234375 18.0625 20.226562 18.039062 20.21875 C 18.082031 20.242188 18.128906 20.257812 18.175781 20.28125 C 19.832031 21.039062 21.3125 22.140625 22.988281 22.84375 C 24.039062 22.371094 24.820312 21.550781 25.789062 20.941406 C 26.785156 20.320312 27.78125 19.699219 28.800781 19.117188 C 30.613281 18.070312 32.421875 17.003906 34.257812 16 Z M 34.636719 16.914062 C 34.535156 16.832031 34.429688 16.757812 34.316406 16.695312 C 32.238281 17.828125 30.167969 19.019531 28.148438 20.246094 C 27.210938 20.816406 26.25 21.359375 25.382812 22.035156 C 24.667969 22.59375 23.960938 23.140625 23.117188 23.492188 C 23.007812 23.535156 22.914062 23.523438 22.839844 23.476562 C 22.828125 23.472656 22.816406 23.46875 22.804688 23.464844 C 20.976562 22.710938 19.382812 21.496094 17.558594 20.710938 C 16.417969 20.21875 15.257812 19.769531 14.097656 19.320312 C 14.617188 19.578125 15.140625 19.820312 15.652344 20.109375 C 16.464844 20.566406 17.253906 21.058594 18.042969 21.542969 C 19.460938 22.417969 21.097656 23.027344 22.414062 24.058594 C 26.554688 21.789062 30.605469 19.363281 34.636719 16.914062 Z M 34.078125 18.523438 C 33.941406 18.433594 33.800781 18.351562 33.65625 18.269531 C 33.652344 18.269531 33.648438 18.265625 33.644531 18.261719 C 30 20.464844 26.339844 22.636719 22.605469 24.683594 C 22.5 24.789062 22.34375 24.832031 22.195312 24.707031 C 20.773438 23.515625 18.898438 22.828125 17.320312 21.847656 C 17.226562 21.789062 17.132812 21.738281 17.042969 21.683594 C 17.492188 21.996094 17.941406 22.300781 18.398438 22.597656 C 19.234375 23.136719 20.136719 23.621094 20.90625 24.242188 C 21.507812 24.730469 22.074219 25.253906 22.765625 25.601562 C 24.949219 24.921875 26.828125 23.285156 28.75 22.09375 C 30.546875 20.980469 32.414062 19.835938 34.078125 18.523438 Z M 33.878906 20.011719 C 33.878906 20.007812 33.878906 20.007812 33.878906 20.003906 C 33.886719 19.882812 33.914062 19.742188 33.949219 19.59375 C 33.933594 19.539062 33.9375 19.488281 33.953125 19.433594 C 32.226562 20.734375 30.324219 21.878906 28.492188 23 C 26.757812 24.058594 25.167969 25.453125 23.230469 26.121094 C 23.226562 26.140625 23.21875 26.15625 23.210938 26.171875 C 23.21875 26.226562 23.210938 26.28125 23.195312 26.335938 C 23.132812 26.539062 23.0625 26.742188 23.003906 26.945312 C 25.058594 25.859375 27.179688 24.859375 29.035156 23.449219 C 30.617188 22.25 32.125 20.953125 33.878906 20.011719 Z M 34.914062 20.320312 C 34.785156 20.230469 34.65625 20.136719 34.527344 20.046875 C 34.523438 20.054688 34.523438 20.058594 34.523438 20.066406 C 34.519531 20.132812 34.496094 20.1875 34.464844 20.230469 C 34.460938 20.339844 34.410156 20.453125 34.285156 20.519531 C 32.183594 21.605469 30.507812 23.277344 28.558594 24.585938 C 26.738281 25.808594 24.734375 26.734375 22.808594 27.769531 C 22.570312 27.898438 22.390625 27.699219 22.382812 27.488281 C 20.660156 26.496094 19.234375 25.066406 17.710938 23.800781 C 16.039062 22.410156 14.351562 21.039062 12.714844 19.613281 C 12.707031 19.605469 12.703125 19.601562 12.699219 19.59375 C 12.671875 19.664062 12.648438 19.726562 12.613281 19.785156 C 15.867188 22.667969 18.578125 26.222656 22.441406 28.339844 C 22.449219 28.34375 22.453125 28.347656 22.457031 28.351562 C 23.605469 28 24.488281 27.222656 25.488281 26.582031 C 26.523438 25.917969 27.644531 25.402344 28.699219 24.773438 C 29.898438 24.0625 31.054688 23.289062 32.214844 22.523438 C 33.191406 21.878906 34.144531 21.210938 34.914062 20.320312 Z M 35.582031 20.007812 C 35.722656 20.113281 35.742188 20.328125 35.636719 20.460938 C 34.804688 21.519531 33.722656 22.308594 32.601562 23.035156 C 31.433594 23.792969 30.289062 24.585938 29.085938 25.285156 C 27.847656 26.007812 26.527344 26.617188 25.355469 27.453125 C 24.480469 28.074219 23.621094 28.703125 22.574219 28.988281 C 22.488281 29.011719 22.414062 29 22.347656 28.972656 C 22.296875 28.972656 22.25 28.964844 22.195312 28.933594 C 18.210938 26.75 15.4375 23.105469 12.070312 20.15625 C 11.847656 20.183594 11.59375 20.132812 11.332031 20.027344 C 10.726562 19.78125 10.132812 19.128906 10.121094 18.4375 C 10.121094 18.367188 10.125 18.300781 10.132812 18.238281 C 8.390625 17.492188 6.789062 16.429688 5.195312 15.410156 C 3.761719 14.496094 2.351562 13.511719 1.378906 12.085938 C 1.285156 11.949219 1.285156 11.734375 1.441406 11.636719 C 1.589844 11.542969 1.730469 11.449219 1.867188 11.355469 C 1.90625 11.230469 2.019531 11.125 2.15625 11.109375 C 2.277344 10.992188 2.382812 10.859375 2.480469 10.695312 C 2.492188 10.675781 2.503906 10.65625 2.519531 10.636719 C 2.351562 10.492188 2.324219 10.191406 2.59375 10.109375 C 3.664062 9.78125 4.566406 9.21875 5.371094 8.445312 C 5.027344 7.921875 4.671875 7.398438 4.308594 6.886719 C 4.222656 6.761719 4.238281 6.625 4.304688 6.527344 C 4.332031 6.460938 4.378906 6.402344 4.457031 6.363281 C 5.335938 5.90625 6.257812 5.5625 7.199219 5.261719 C 7.167969 5.1875 7.140625 5.113281 7.109375 5.039062 C 6.953125 4.902344 6.925781 4.597656 7.171875 4.476562 C 9.480469 3.34375 12.101562 2.734375 14.542969 1.941406 C 16.804688 1.203125 19.046875 0.558594 21.386719 0.117188 C 21.453125 0.105469 21.507812 0.113281 21.554688 0.132812 C 21.703125 0.128906 21.847656 0.210938 21.859375 0.402344 C 21.992188 2.351562 23.261719 3.914062 24.066406 5.621094 C 24.863281 7.3125 25.445312 9.242188 25.613281 11.109375 C 25.628906 11.125 25.644531 11.140625 25.660156 11.15625 C 28.585938 11.480469 31.546875 11.359375 34.453125 11.851562 C 34.84375 11.917969 34.789062 12.5 34.425781 12.492188 C 34.308594 12.5625 34.191406 12.628906 34.074219 12.699219 C 34.480469 12.804688 34.886719 12.914062 35.277344 13.070312 C 35.464844 13.144531 35.503906 13.324219 35.445312 13.472656 C 35.425781 13.558594 35.414062 13.644531 35.414062 13.734375 C 35.414062 13.742188 35.417969 13.816406 35.417969 13.828125 C 35.425781 13.875 35.429688 13.921875 35.4375 13.964844 C 35.460938 14.125 35.375 14.238281 35.257812 14.289062 C 34.796875 14.566406 34.347656 14.867188 33.902344 15.171875 C 34.304688 15.3125 34.695312 15.492188 35.09375 15.660156 C 35.371094 15.773438 35.3125 16.121094 35.117188 16.238281 C 35.089844 16.261719 35.066406 16.285156 35.03125 16.304688 C 35 16.320312 34.972656 16.339844 34.941406 16.355469 C 35.109375 16.476562 35.265625 16.609375 35.421875 16.769531 C 35.535156 16.886719 35.496094 17.140625 35.363281 17.222656 C 34.996094 17.441406 34.632812 17.664062 34.265625 17.886719 C 34.453125 17.996094 34.636719 18.117188 34.800781 18.257812 C 34.84375 18.289062 34.871094 18.332031 34.890625 18.371094 C 34.949219 18.449219 34.96875 18.554688 34.917969 18.679688 C 34.804688 18.953125 34.71875 19.167969 34.65625 19.363281 C 34.972656 19.570312 35.277344 19.785156 35.582031 20.007812 " fill-opacity="1" fill-rule="nonzero"/></g></g></g></svg>